<svg width="29" height="28" viewBox="0 0 29 28" fill="none" xmlns="http://www.w3.org/2000/svg">
<path d="M23.8703 7.95471L17.157 3.25251C15.3272 1.96903 12.5183 2.03904 10.7584 3.40419L4.91925 7.96637C3.75375 8.87648 2.83301 10.7434 2.83301 12.2135V20.2644C2.83301 23.2398 5.2456 25.6667 8.21762 25.6667H20.7817C23.7538 25.6667 26.1663 23.2514 26.1663 20.2761V12.3652C26.1663 10.79 25.1524 8.85314 23.8703 7.95471ZM15.3738 20.9995C15.3738 21.4779 14.9775 21.8746 14.4997 21.8746C14.0218 21.8746 13.6255 21.4779 13.6255 20.9995V17.4991C13.6255 17.0207 14.0218 16.624 14.4997 16.624C14.9775 16.624 15.3738 17.0207 15.3738 17.4991V20.9995Z" fill="#000000"/>
</svg>
