<svg width="24" height="24" viewBox="0 0 24 24" fill="none" xmlns="http://www.w3.org/2000/svg">
<path fill-rule="evenodd" clip-rule="evenodd" d="M2.21935 9.00112C2.43376 8.99983 3.07098 8.94244 3.34089 9.8534C3.52271 10.467 3.81234 11.4722 4.20977 12.8689H4.37162C4.79783 11.3964 5.09062 10.3912 5.24998 9.8534C5.5227 8.93295 6.20452 9.00114 6.47725 9.00114L8.58139 9.00114V15.5465H6.43679V11.6892H6.29298L5.09747 15.5465H3.48393L2.28841 11.6864H2.1446V15.5465H0V9.00114L2.21935 9.00112ZM11.661 9.00114V12.8613H11.8321L13.2863 9.68712C13.5686 9.05544 14.1703 9.00114 14.1703 9.00114H16.2456V15.5466H14.0562V11.6864H13.8851L12.4594 14.8606C12.1771 15.4894 11.5469 15.5466 11.5469 15.5466H9.47161V9.00114H11.661ZM23.8131 12.1116C23.5077 12.977 22.5486 13.5968 21.4868 13.5968H19.1908V15.5466H17.1088V12.1116H23.8131Z" fill="#0F754E"/>
<path fill-rule="evenodd" clip-rule="evenodd" d="M21.5873 9.00122H16.9998C17.1089 10.4585 18.3639 11.7059 19.663 11.7059H23.9579C24.2057 10.4948 23.3525 9.00122 21.5873 9.00122Z" fill="url(#paint0_linear_6681_11432)"/>
<defs>
<linearGradient id="paint0_linear_6681_11432" x1="24" y1="10.7026" x2="16.9998" y2="10.7026" gradientUnits="userSpaceOnUse">
<stop stop-color="#1F5CD7"/>
<stop offset="1" stop-color="#02AEFF"/>
</linearGradient>
</defs>
</svg>
