<svg width="16" height="16" viewBox="0 0 16 16" fill="none" xmlns="http://www.w3.org/2000/svg">
<g clip-path="url(#clip0_10908_32863)">
<path fill-rule="evenodd" clip-rule="evenodd" d="M4.4424 2.12645C4.64175 1.72788 4.94813 1.39269 5.32723 1.15842C5.70632 0.924156 6.14316 0.800064 6.5888 0.800049H9.4112C9.85684 0.800064 10.2937 0.924156 10.6728 1.15842C11.0519 1.39269 11.3583 1.72788 11.5576 2.12645L11.8736 2.75845C11.9401 2.89116 12.0422 3.00276 12.1685 3.08075C12.2948 3.15874 12.4404 3.20004 12.5888 3.20005H13.6C14.2365 3.20005 14.847 3.45291 15.2971 3.90299C15.7471 4.35308 16 4.96353 16 5.60005V12.8C16 13.4366 15.7471 14.047 15.2971 14.4971C14.847 14.9472 14.2365 15.2 13.6 15.2H2.4C1.76348 15.2 1.15303 14.9472 0.702944 14.4971C0.252856 14.047 0 13.4366 0 12.8V5.60005C0 4.96353 0.252856 4.35308 0.702944 3.90299C1.15303 3.45291 1.76348 3.20005 2.4 3.20005H3.4112C3.55973 3.19997 3.7053 3.15854 3.83162 3.08041C3.95794 3.00227 4.06001 2.89051 4.1264 2.75765L4.4424 2.12645ZM5.6 8.80005C5.6 8.16353 5.85286 7.55308 6.30294 7.10299C6.75303 6.6529 7.36348 6.40005 8 6.40005C8.63652 6.40005 9.24697 6.6529 9.69706 7.10299C10.1471 7.55308 10.4 8.16353 10.4 8.80005C10.4 9.43657 10.1471 10.047 9.69706 10.4971C9.24697 10.9472 8.63652 11.2 8 11.2C7.36348 11.2 6.75303 10.9472 6.30294 10.4971C5.85286 10.047 5.6 9.43657 5.6 8.80005ZM8 4.80005C6.93913 4.80005 5.92172 5.22148 5.17157 5.97162C4.42143 6.72177 4 7.73918 4 8.80005C4 9.86091 4.42143 10.8783 5.17157 11.6285C5.92172 12.3786 6.93913 12.8 8 12.8C9.06087 12.8 10.0783 12.3786 10.8284 11.6285C11.5786 10.8783 12 9.86091 12 8.80005C12 7.73918 11.5786 6.72177 10.8284 5.97162C10.0783 5.22148 9.06087 4.80005 8 4.80005Z" fill="#000000"/>
</g>
<defs>
<clipPath id="clip0_10908_32863">
<rect width="16" height="14.4" fill="white" transform="translate(0 0.800049)"/>
</clipPath>
</defs>
</svg>
